<?xml version="1.0" standalone="no"?>
<!DOCTYPE svg PUBLIC "-//W3C//DTD SVG 20010904//EN"
 "http://www.w3.org/TR/2001/REC-SVG-20010904/DTD/svg10.dtd">
<svg version="1.0" xmlns="http://www.w3.org/2000/svg"
 width="700.000000pt" height="700.000000pt" viewBox="0 0 700.000000 700.000000"
 preserveAspectRatio="xMidYMid meet">
<metadata>
Created by potrace 1.11, written by Peter Selinger 2001-2013
</metadata>
<g transform="translate(0.000000,700.000000) scale(0.100000,-0.100000)"
fill="#000000" stroke="none">
<path d="M326 6348 c179 -359 328 -655 330 -657 1 -2 150 -3 330 -3 l326 0 90
-187 c111 -229 194 -402 263 -546 29 -60 89 -186 135 -279 l82 -170 199 450
c110 247 209 469 220 494 11 25 40 88 63 140 l42 95 328 1 c240 1 326 -1 323
-10 -10 -23 -185 -423 -205 -466 -11 -25 -46 -103 -77 -175 -31 -71 -63 -143
-70 -160 -12 -25 -102 -231 -151 -342 -45 -105 -189 -430 -219 -498 -14 -33
-33 -76 -41 -95 -9 -19 -20 -44 -25 -55 -5 -11 -45 -101 -88 -200 l-79 -180
-176 -3 -176 -2 873 -1745 c479 -960 874 -1745 877 -1745 5 0 72 132 580 1135
150 297 342 677 427 844 85 167 158 311 163 320 4 9 21 43 38 76 27 53 146
290 438 865 49 96 92 182 95 190 6 13 -8 15 -86 16 -90 2 -200 10 -240 18
-344 71 -605 236 -795 503 -16 24 -30 45 -30 48 0 3 -11 23 -25 45 -51 81
-100 231 -120 365 -7 48 -7 200 0 234 2 14 7 46 10 73 8 67 59 220 102 303
123 239 332 431 590 544 87 38 236 79 323 88 113 13 335 7 415 -11 11 -3 52
-11 91 -20 93 -20 189 -56 291 -111 137 -72 238 -160 325 -281 l33 -46 137
278 c75 154 142 290 147 304 6 14 15 32 20 40 5 8 34 67 64 130 31 63 119 246
197 405 78 160 171 351 207 425 36 74 74 152 84 173 l19 37 -3500 0 -3500 0
326 -652z m3479 -1753 l0 -1090 -306 -3 -306 -2 1 1094 0 1093 305 -1 306 -1
0 -1090z"/>
<path d="M6032 5130 c-23 -16 -44 -30 -47 -30 -3 0 -45 -25 -93 -56 -86 -56
-140 -91 -236 -152 -27 -18 -52 -32 -55 -32 -3 0 -17 20 -30 45 -73 137 -239
214 -451 210 -104 -2 -166 -17 -247 -57 -245 -122 -372 -397 -301 -652 21 -75
55 -146 91 -188 12 -14 33 -39 47 -55 90 -107 245 -176 400 -177 155 -1 267
28 366 95 94 64 106 84 360 591 134 268 242 488 241 488 -2 0 -23 -13 -45 -30z"/>
</g>
</svg>
